<svg id="visual" viewBox="0 0 900 600" width="900" height="600" xmlns="http://www.w3.org/2000/svg" xmlns:xlink="http://www.w3.org/1999/xlink" version="1.1"><g stroke-width="1" stroke-linejoin="bevel"><path d="M422 294L366.5 228L348.5 285Z" fill="#4076ac" stroke="#4076ac"></path><path d="M422 294L452 186L366.5 228Z" fill="#396998" stroke="#396998"></path><path d="M481 439L527.5 320L422 294Z" fill="#5c8cbe" stroke="#5c8cbe"></path><path d="M422 294L527.5 320L452 186Z" fill="#5c8cbe" stroke="#5c8cbe"></path><path d="M452 186L361.5 112L366.5 228Z" fill="#35628f" stroke="#35628f"></path><path d="M366.5 228L238 196L348.5 285Z" fill="#447db6" stroke="#447db6"></path><path d="M348.5 285L338.5 420L422 294Z" fill="#729bc7" stroke="#729bc7"></path><path d="M361.5 112L238 196L366.5 228Z" fill="#729bc7" stroke="#729bc7"></path><path d="M348.5 285L204 327L338.5 420Z" fill="#447db6" stroke="#447db6"></path><path d="M524.5 82L460 95L452 186Z" fill="#3d70a2" stroke="#3d70a2"></path><path d="M452 186L460 95L361.5 112Z" fill="#35628f" stroke="#35628f"></path><path d="M238 196L204 327L348.5 285Z" fill="#7da2cb" stroke="#7da2cb"></path><path d="M338.5 420L481 439L422 294Z" fill="#5c8cbe" stroke="#5c8cbe"></path><path d="M338.5 420L461 463L481 439Z" fill="#5084ba" stroke="#5084ba"></path><path d="M527.5 320L583.5 174L452 186Z" fill="#396998" stroke="#396998"></path><path d="M201 397L301.5 468L338.5 420Z" fill="#729bc7" stroke="#729bc7"></path><path d="M338.5 420L301.5 468L461 463Z" fill="#5c8cbe" stroke="#5c8cbe"></path><path d="M204 327L201 397L338.5 420Z" fill="#6793c3" stroke="#6793c3"></path><path d="M583.5 174L524.5 82L452 186Z" fill="#5084ba" stroke="#5084ba"></path><path d="M370.5 0L205 94L361.5 112Z" fill="#5c8cbe" stroke="#5c8cbe"></path><path d="M481 439L596.5 406L527.5 320Z" fill="#5c8cbe" stroke="#5c8cbe"></path><path d="M527.5 320L656 318L583.5 174Z" fill="#325c85" stroke="#325c85"></path><path d="M531.5 533L596.5 406L481 439Z" fill="#3d70a2" stroke="#3d70a2"></path><path d="M361.5 112L205 94L238 196Z" fill="#3d70a2" stroke="#3d70a2"></path><path d="M238 196L109.5 288L204 327Z" fill="#6793c3" stroke="#6793c3"></path><path d="M204 327L127.5 368L201 397Z" fill="#396998" stroke="#396998"></path><path d="M370.5 0L361.5 112L460 95Z" fill="#4076ac" stroke="#4076ac"></path><path d="M489 0L370.5 0L460 95Z" fill="#3d70a2" stroke="#3d70a2"></path><path d="M205 94L133.5 182L238 196Z" fill="#3d70a2" stroke="#3d70a2"></path><path d="M596.5 406L656 318L527.5 320Z" fill="#35628f" stroke="#35628f"></path><path d="M133.5 182L109.5 288L238 196Z" fill="#5084ba" stroke="#5084ba"></path><path d="M109.5 288L127.5 368L204 327Z" fill="#729bc7" stroke="#729bc7"></path><path d="M201 397L214 539L301.5 468Z" fill="#7da2cb" stroke="#7da2cb"></path><path d="M656 318L661 192L583.5 174Z" fill="#3d70a2" stroke="#3d70a2"></path><path d="M637 0L560.5 0L524.5 82Z" fill="#7da2cb" stroke="#7da2cb"></path><path d="M560.5 0L489 0L524.5 82Z" fill="#5084ba" stroke="#5084ba"></path><path d="M524.5 82L489 0L460 95Z" fill="#5c8cbe" stroke="#5c8cbe"></path><path d="M457 600L531.5 533L461 463Z" fill="#6793c3" stroke="#6793c3"></path><path d="M461 463L531.5 533L481 439Z" fill="#35628f" stroke="#35628f"></path><path d="M596.5 406L668 415L656 318Z" fill="#325c85" stroke="#325c85"></path><path d="M687 520L668 415L596.5 406Z" fill="#6793c3" stroke="#6793c3"></path><path d="M772.5 225L679 122L661 192Z" fill="#5084ba" stroke="#5084ba"></path><path d="M679 122L524.5 82L583.5 174Z" fill="#4076ac" stroke="#4076ac"></path><path d="M83.5 495L214 539L201 397Z" fill="#5084ba" stroke="#5084ba"></path><path d="M301.5 468L457 600L461 463Z" fill="#447db6" stroke="#447db6"></path><path d="M772.5 225L661 192L656 318Z" fill="#396998" stroke="#396998"></path><path d="M661 192L679 122L583.5 174Z" fill="#3d70a2" stroke="#3d70a2"></path><path d="M370.5 0L197 0L205 94Z" fill="#396998" stroke="#396998"></path><path d="M205 94L100.5 92L133.5 182Z" fill="#447db6" stroke="#447db6"></path><path d="M113.5 0L100.5 92L205 94Z" fill="#396998" stroke="#396998"></path><path d="M0 163L0 318L109.5 288Z" fill="#396998" stroke="#396998"></path><path d="M300.5 600L457 600L301.5 468Z" fill="#6793c3" stroke="#6793c3"></path><path d="M531.5 533L687 520L596.5 406Z" fill="#3d70a2" stroke="#3d70a2"></path><path d="M214 539L300.5 600L301.5 468Z" fill="#35628f" stroke="#35628f"></path><path d="M457 600L523.5 600L531.5 533Z" fill="#7da2cb" stroke="#7da2cb"></path><path d="M679 122L637 0L524.5 82Z" fill="#4076ac" stroke="#4076ac"></path><path d="M84.5 600L236 600L214 539Z" fill="#396998" stroke="#396998"></path><path d="M214 539L236 600L300.5 600Z" fill="#35628f" stroke="#35628f"></path><path d="M0 371L83.5 495L127.5 368Z" fill="#4076ac" stroke="#4076ac"></path><path d="M127.5 368L83.5 495L201 397Z" fill="#3d70a2" stroke="#3d70a2"></path><path d="M0 318L127.5 368L109.5 288Z" fill="#7da2cb" stroke="#7da2cb"></path><path d="M197 0L113.5 0L205 94Z" fill="#325c85" stroke="#325c85"></path><path d="M780.5 288L772.5 225L656 318Z" fill="#396998" stroke="#396998"></path><path d="M679 122L773.5 0L637 0Z" fill="#729bc7" stroke="#729bc7"></path><path d="M0 163L109.5 288L133.5 182Z" fill="#5084ba" stroke="#5084ba"></path><path d="M0 163L133.5 182L100.5 92Z" fill="#35628f" stroke="#35628f"></path><path d="M639 600L687 520L531.5 533Z" fill="#396998" stroke="#396998"></path><path d="M668 415L780.5 288L656 318Z" fill="#7da2cb" stroke="#7da2cb"></path><path d="M797.5 432L780.5 288L668 415Z" fill="#447db6" stroke="#447db6"></path><path d="M0 60L0 163L100.5 92Z" fill="#5084ba" stroke="#5084ba"></path><path d="M0 318L0 371L127.5 368Z" fill="#6793c3" stroke="#6793c3"></path><path d="M523.5 600L639 600L531.5 533Z" fill="#3d70a2" stroke="#3d70a2"></path><path d="M0 371L0 468L83.5 495Z" fill="#5084ba" stroke="#5084ba"></path><path d="M83.5 495L84.5 600L214 539Z" fill="#7da2cb" stroke="#7da2cb"></path><path d="M113.5 0L0 60L100.5 92Z" fill="#35628f" stroke="#35628f"></path><path d="M793.5 512L797.5 432L687 520Z" fill="#4076ac" stroke="#4076ac"></path><path d="M687 520L797.5 432L668 415Z" fill="#35628f" stroke="#35628f"></path><path d="M900 209L815.5 130L772.5 225Z" fill="#5c8cbe" stroke="#5c8cbe"></path><path d="M772.5 225L815.5 130L679 122Z" fill="#447db6" stroke="#447db6"></path><path d="M900 279L772.5 225L780.5 288Z" fill="#396998" stroke="#396998"></path><path d="M0 600L84.5 600L83.5 495Z" fill="#4076ac" stroke="#4076ac"></path><path d="M815.5 130L773.5 0L679 122Z" fill="#447db6" stroke="#447db6"></path><path d="M113.5 0L0 0L0 60Z" fill="#396998" stroke="#396998"></path><path d="M778.5 600L793.5 512L687 520Z" fill="#447db6" stroke="#447db6"></path><path d="M900 404L900 279L780.5 288Z" fill="#4076ac" stroke="#4076ac"></path><path d="M0 468L0 600L83.5 495Z" fill="#4076ac" stroke="#4076ac"></path><path d="M900 404L780.5 288L797.5 432Z" fill="#7da2cb" stroke="#7da2cb"></path><path d="M815.5 130L900 0L773.5 0Z" fill="#5c8cbe" stroke="#5c8cbe"></path><path d="M639 600L778.5 600L687 520Z" fill="#325c85" stroke="#325c85"></path><path d="M900 494L900 404L797.5 432Z" fill="#396998" stroke="#396998"></path><path d="M900 279L900 209L772.5 225Z" fill="#5084ba" stroke="#5084ba"></path><path d="M900 494L797.5 432L793.5 512Z" fill="#325c85" stroke="#325c85"></path><path d="M900 209L900 104L815.5 130Z" fill="#3d70a2" stroke="#3d70a2"></path><path d="M900 600L900 494L793.5 512Z" fill="#325c85" stroke="#325c85"></path><path d="M900 104L900 0L815.5 130Z" fill="#729bc7" stroke="#729bc7"></path><path d="M778.5 600L900 600L793.5 512Z" fill="#7da2cb" stroke="#7da2cb"></path></g></svg>