<svg id="visual" viewBox="0 0 675 900" width="675" height="900" xmlns="http://www.w3.org/2000/svg" xmlns:xlink="http://www.w3.org/1999/xlink" version="1.1" fill-opacity="0.5" stroke-opacity="0">
<g stroke-width="1" stroke-linejoin="bevel">
<path d="M344.5 432L440 483L422 370.5Z" fill="#a0a0a0" stroke="#a0a0a0"></path>
<path d="M346.5 587.5L415 573.5L440 483Z" fill="#757575" stroke="#757575"></path>
<path d="M550.5 522.5L546.5 477L440 483Z" fill="#a8a8a8" stroke="#a8a8a8"></path>
<path d="M440 483L546.5 477L422 370.5Z" fill="#999999" stroke="#999999"></path>
<path d="M422 370.5L305.5 310.5L344.5 432Z" fill="#999999" stroke="#999999"></path>
<path d="M559.5 335.5L422 264L422 370.5Z" fill="#7c7c7c" stroke="#7c7c7c"></path>
<path d="M422 370.5L422 264L305.5 310.5Z" fill="#838383" stroke="#838383"></path>
<path d="M258 571.5L346.5 587.5L344.5 432Z" fill="#838383" stroke="#838383"></path>
<path d="M344.5 432L346.5 587.5L440 483Z" fill="#a8a8a8" stroke="#a8a8a8"></path>
<path d="M415 573.5L550.5 522.5L440 483Z" fill="#8a8a8a" stroke="#8a8a8a"></path>
<path d="M305.5 310.5L257 332.5L344.5 432Z" fill="#8a8a8a" stroke="#8a8a8a"></path>
<path d="M257 332.5L230 463L344.5 432Z" fill="#838383" stroke="#838383"></path>
<path d="M675 434L559.5 335.5L546.5 477Z" fill="#838383" stroke="#838383"></path>
<path d="M546.5 477L559.5 335.5L422 370.5Z" fill="#676767" stroke="#676767"></path>
<path d="M422 264L328.5 244L305.5 310.5Z" fill="#8a8a8a" stroke="#8a8a8a"></path>
<path d="M305.5 310.5L249 211L257 332.5Z" fill="#999999" stroke="#999999"></path>
<path d="M230 463L258 571.5L344.5 432Z" fill="#838383" stroke="#838383"></path>
<path d="M559.5 335.5L549.5 232L422 264Z" fill="#757575" stroke="#757575"></path>
<path d="M422 264L349.5 123.5L328.5 244Z" fill="#a0a0a0" stroke="#a0a0a0"></path>
<path d="M346.5 587.5L457 675L415 573.5Z" fill="#606060" stroke="#606060"></path>
<path d="M415 573.5L457 675L550.5 522.5Z" fill="#6e6e6e" stroke="#6e6e6e"></path>
<path d="M307.5 689L457 675L346.5 587.5Z" fill="#676767" stroke="#676767"></path>
<path d="M675 541.5L546.5 477L550.5 522.5Z" fill="#7c7c7c" stroke="#7c7c7c"></path>
<path d="M675 541.5L675 434L546.5 477Z" fill="#999999" stroke="#999999"></path>
<path d="M559.5 335.5L675 231L549.5 232Z" fill="#a8a8a8" stroke="#a8a8a8"></path>
<path d="M349.5 123.5L249 211L328.5 244Z" fill="#999999" stroke="#999999"></path>
<path d="M328.5 244L249 211L305.5 310.5Z" fill="#676767" stroke="#676767"></path>
<path d="M257 332.5L84.5 431L230 463Z" fill="#929292" stroke="#929292"></path>
<path d="M675 434L675 373.5L559.5 335.5Z" fill="#606060" stroke="#606060"></path>
<path d="M263 678L307.5 689L346.5 587.5Z" fill="#606060" stroke="#606060"></path>
<path d="M457 675L574.5 662L550.5 522.5Z" fill="#8a8a8a" stroke="#8a8a8a"></path>
<path d="M258 571.5L263 678L346.5 587.5Z" fill="#757575" stroke="#757575"></path>
<path d="M92.5 645L263 678L258 571.5Z" fill="#999999" stroke="#999999"></path>
<path d="M574.5 662L675 541.5L550.5 522.5Z" fill="#757575" stroke="#757575"></path>
<path d="M558.5 145.5L474 144.5L549.5 232Z" fill="#999999" stroke="#999999"></path>
<path d="M549.5 232L474 144.5L422 264Z" fill="#838383" stroke="#838383"></path>
<path d="M474 144.5L349.5 123.5L422 264Z" fill="#999999" stroke="#999999"></path>
<path d="M82.5 337.5L84.5 431L257 332.5Z" fill="#8a8a8a" stroke="#8a8a8a"></path>
<path d="M230 463L76.5 590.5L258 571.5Z" fill="#838383" stroke="#838383"></path>
<path d="M675 231L558.5 145.5L549.5 232Z" fill="#8a8a8a" stroke="#8a8a8a"></path>
<path d="M474 144.5L434 0L349.5 123.5Z" fill="#838383" stroke="#838383"></path>
<path d="M116.5 128.5L127.5 263L249 211Z" fill="#999999" stroke="#999999"></path>
<path d="M249 211L127.5 263L257 332.5Z" fill="#838383" stroke="#838383"></path>
<path d="M675 373.5L675 231L559.5 335.5Z" fill="#6e6e6e" stroke="#6e6e6e"></path>
<path d="M127.5 263L82.5 337.5L257 332.5Z" fill="#606060" stroke="#606060"></path>
<path d="M263 678L332.5 766.5L307.5 689Z" fill="#999999" stroke="#999999"></path>
<path d="M307.5 689L332.5 766.5L457 675Z" fill="#7c7c7c" stroke="#7c7c7c"></path>
<path d="M457 675L589.5 781.5L574.5 662Z" fill="#757575" stroke="#757575"></path>
<path d="M574.5 662L675 674L675 541.5Z" fill="#676767" stroke="#676767"></path>
<path d="M589.5 781.5L675 674L574.5 662Z" fill="#999999" stroke="#999999"></path>
<path d="M349.5 123.5L225 115.5L249 211Z" fill="#606060" stroke="#606060"></path>
<path d="M0 436L76.5 590.5L84.5 431Z" fill="#6e6e6e" stroke="#6e6e6e"></path>
<path d="M84.5 431L76.5 590.5L230 463Z" fill="#a0a0a0" stroke="#a0a0a0"></path>
<path d="M263 678L208 824.5L332.5 766.5Z" fill="#929292" stroke="#929292"></path>
<path d="M76.5 590.5L92.5 645L258 571.5Z" fill="#8a8a8a" stroke="#8a8a8a"></path>
<path d="M332.5 766.5L454 809.5L457 675Z" fill="#838383" stroke="#838383"></path>
<path d="M454 809.5L589.5 781.5L457 675Z" fill="#606060" stroke="#606060"></path>
<path d="M82.5 337.5L0 436L84.5 431Z" fill="#a8a8a8" stroke="#a8a8a8"></path>
<path d="M76.5 590.5L0 586.5L92.5 645Z" fill="#a0a0a0" stroke="#a0a0a0"></path>
<path d="M0 297.5L0 436L82.5 337.5Z" fill="#676767" stroke="#676767"></path>
<path d="M0 297.5L82.5 337.5L127.5 263Z" fill="#999999" stroke="#999999"></path>
<path d="M225 115.5L116.5 128.5L249 211Z" fill="#8a8a8a" stroke="#8a8a8a"></path>
<path d="M0 247L0 297.5L127.5 263Z" fill="#7c7c7c" stroke="#7c7c7c"></path>
<path d="M545.5 0L474 144.5L558.5 145.5Z" fill="#7c7c7c" stroke="#7c7c7c"></path>
<path d="M545.5 0L434 0L474 144.5Z" fill="#606060" stroke="#606060"></path>
<path d="M349.5 123.5L247 0L225 115.5Z" fill="#999999" stroke="#999999"></path>
<path d="M225 115.5L93.5 0L116.5 128.5Z" fill="#7c7c7c" stroke="#7c7c7c"></path>
<path d="M434 0L348.5 0L349.5 123.5Z" fill="#8a8a8a" stroke="#8a8a8a"></path>
<path d="M0 436L0 586.5L76.5 590.5Z" fill="#838383" stroke="#838383"></path>
<path d="M675 231L675 85.5L558.5 145.5Z" fill="#a0a0a0" stroke="#a0a0a0"></path>
<path d="M92.5 645L106.5 750.5L263 678Z" fill="#a8a8a8" stroke="#a8a8a8"></path>
<path d="M309.5 900L477 900L454 809.5Z" fill="#999999" stroke="#999999"></path>
<path d="M0 696L106.5 750.5L92.5 645Z" fill="#a8a8a8" stroke="#a8a8a8"></path>
<path d="M106.5 750.5L208 824.5L263 678Z" fill="#838383" stroke="#838383"></path>
<path d="M116.5 128.5L0 247L127.5 263Z" fill="#929292" stroke="#929292"></path>
<path d="M675 85.5L545.5 0L558.5 145.5Z" fill="#838383" stroke="#838383"></path>
<path d="M574.5 900L589.5 781.5L454 809.5Z" fill="#757575" stroke="#757575"></path>
<path d="M574.5 900L675 799.5L589.5 781.5Z" fill="#838383" stroke="#838383"></path>
<path d="M589.5 781.5L675 799.5L675 674Z" fill="#6e6e6e" stroke="#6e6e6e"></path>
<path d="M348.5 0L247 0L349.5 123.5Z" fill="#a8a8a8" stroke="#a8a8a8"></path>
<path d="M309.5 900L454 809.5L332.5 766.5Z" fill="#7c7c7c" stroke="#7c7c7c"></path>
<path d="M242 900L309.5 900L208 824.5Z" fill="#999999" stroke="#999999"></path>
<path d="M208 824.5L309.5 900L332.5 766.5Z" fill="#a0a0a0" stroke="#a0a0a0"></path>
<path d="M0 586.5L0 696L92.5 645Z" fill="#a8a8a8" stroke="#a8a8a8"></path>
<path d="M123.5 900L242 900L208 824.5Z" fill="#757575" stroke="#757575"></path>
<path d="M123.5 900L208 824.5L106.5 750.5Z" fill="#757575" stroke="#757575"></path>
<path d="M477 900L574.5 900L454 809.5Z" fill="#606060" stroke="#606060"></path>
<path d="M675 85.5L675 0L545.5 0Z" fill="#a8a8a8" stroke="#a8a8a8"></path>
<path d="M116.5 128.5L0 93.5L0 247Z" fill="#a8a8a8" stroke="#a8a8a8"></path>
<path d="M93.5 0L0 93.5L116.5 128.5Z" fill="#6e6e6e" stroke="#6e6e6e"></path>
<path d="M247 0L93.5 0L225 115.5Z" fill="#757575" stroke="#757575"></path>
<path d="M574.5 900L675 900L675 799.5Z" fill="#6e6e6e" stroke="#6e6e6e"></path>
<path d="M0 816.5L123.5 900L106.5 750.5Z" fill="#8a8a8a" stroke="#8a8a8a"></path>
<path d="M0 696L0 816.5L106.5 750.5Z" fill="#7c7c7c" stroke="#7c7c7c"></path>
<path d="M93.5 0L0 0L0 93.5Z" fill="#7c7c7c" stroke="#7c7c7c"></path>
<path d="M0 816.5L0 900L123.5 900Z" fill="#a0a0a0" stroke="#a0a0a0"></path>
</g>
</svg>