<svg id="visual" viewBox="0 0 1200 300" width="1200" height="300" xmlns="http://www.w3.org/2000/svg" xmlns:xlink="http://www.w3.org/1999/xlink" version="1.1"><g stroke-width="1" stroke-linejoin="bevel"><path d="M601.8 105L586.2 77L498.5 127Z" fill="#6f262b" stroke="#6f262b"></path><path d="M586.2 77L499.5 93L498.5 127Z" fill="#77292e" stroke="#77292e"></path><path d="M498.5 127L526.5 189L601.8 105Z" fill="#b05b5c" stroke="#b05b5c"></path><path d="M586.2 77L501.8 34L499.5 93Z" fill="#973437" stroke="#973437"></path><path d="M595.8 0L586.2 0L586.2 77Z" fill="#a44849" stroke="#a44849"></path><path d="M586.2 77L586.2 0L501.8 34Z" fill="#6f262b" stroke="#6f262b"></path><path d="M701.5 0L595.8 0L586.2 77Z" fill="#aa5252" stroke="#aa5252"></path><path d="M586.2 0L499.5 0L501.8 34Z" fill="#8f3135" stroke="#8f3135"></path><path d="M501.8 34L395.2 72L499.5 93Z" fill="#77292e" stroke="#77292e"></path><path d="M499.5 93L395.2 72L498.5 127Z" fill="#9d3e40" stroke="#9d3e40"></path><path d="M526.5 189L618.8 253L601.8 105Z" fill="#872e32" stroke="#872e32"></path><path d="M601.8 105L701.5 0L586.2 77Z" fill="#9d3e40" stroke="#9d3e40"></path><path d="M618.8 253L680.2 202L601.8 105Z" fill="#77292e" stroke="#77292e"></path><path d="M499.5 0L395.2 72L501.8 34Z" fill="#b66565" stroke="#b66565"></path><path d="M498.5 127L387.2 233L526.5 189Z" fill="#6f262b" stroke="#6f262b"></path><path d="M511.8 300L582.2 300L526.5 189Z" fill="#973437" stroke="#973437"></path><path d="M526.5 189L582.2 300L618.8 253Z" fill="#8f3135" stroke="#8f3135"></path><path d="M618.8 253L678.2 257L680.2 202Z" fill="#b05b5c" stroke="#b05b5c"></path><path d="M440.5 300L511.8 300L526.5 189Z" fill="#9d3e40" stroke="#9d3e40"></path><path d="M767.5 123L701.5 0L601.8 105Z" fill="#6f262b" stroke="#6f262b"></path><path d="M582.2 300L678.2 257L618.8 253Z" fill="#b05b5c" stroke="#b05b5c"></path><path d="M680.2 202L767.5 123L601.8 105Z" fill="#aa5252" stroke="#aa5252"></path><path d="M395.2 72L387.2 233L498.5 127Z" fill="#7f2b30" stroke="#7f2b30"></path><path d="M762.5 300L709.5 246L678.2 257Z" fill="#77292e" stroke="#77292e"></path><path d="M678.2 257L709.5 246L680.2 202Z" fill="#973437" stroke="#973437"></path><path d="M709.5 246L747.5 175L680.2 202Z" fill="#9d3e40" stroke="#9d3e40"></path><path d="M387.2 233L440.5 300L526.5 189Z" fill="#9d3e40" stroke="#9d3e40"></path><path d="M747.5 175L767.5 123L680.2 202Z" fill="#b05b5c" stroke="#b05b5c"></path><path d="M395.2 72L332.2 147L387.2 233Z" fill="#6f262b" stroke="#6f262b"></path><path d="M499.5 0L322.2 0L395.2 72Z" fill="#b05b5c" stroke="#b05b5c"></path><path d="M395.2 72L256.9 42L332.2 147Z" fill="#9d3e40" stroke="#9d3e40"></path><path d="M256.9 42L298.9 178L332.2 147Z" fill="#7f2b30" stroke="#7f2b30"></path><path d="M332.2 147L298.9 178L387.2 233Z" fill="#973437" stroke="#973437"></path><path d="M387.2 233L325.2 300L440.5 300Z" fill="#77292e" stroke="#77292e"></path><path d="M709.5 246L817.8 279L747.5 175Z" fill="#9d3e40" stroke="#9d3e40"></path><path d="M885.8 189L892.1 128L767.5 123Z" fill="#872e32" stroke="#872e32"></path><path d="M582.2 300L762.5 300L678.2 257Z" fill="#aa5252" stroke="#aa5252"></path><path d="M298.9 178L325.2 300L387.2 233Z" fill="#9d3e40" stroke="#9d3e40"></path><path d="M322.2 0L256.9 42L395.2 72Z" fill="#77292e" stroke="#77292e"></path><path d="M298.9 178L251.9 209L325.2 300Z" fill="#aa5252" stroke="#aa5252"></path><path d="M150.3 139L251.9 209L298.9 178Z" fill="#973437" stroke="#973437"></path><path d="M762.5 300L817.8 279L709.5 246Z" fill="#a44849" stroke="#a44849"></path><path d="M892.1 128L862.8 48L767.5 123Z" fill="#8f3135" stroke="#8f3135"></path><path d="M767.5 123L851.8 0L701.5 0Z" fill="#6f262b" stroke="#6f262b"></path><path d="M862.8 48L851.8 0L767.5 123Z" fill="#7f2b30" stroke="#7f2b30"></path><path d="M251.9 209L279.9 300L325.2 300Z" fill="#77292e" stroke="#77292e"></path><path d="M762.5 300L827.8 300L817.8 279Z" fill="#aa5252" stroke="#aa5252"></path><path d="M885.8 189L767.5 123L747.5 175Z" fill="#7f2b30" stroke="#7f2b30"></path><path d="M885.8 189L747.5 175L817.8 279Z" fill="#aa5252" stroke="#aa5252"></path><path d="M862.8 48L940.1 0L851.8 0Z" fill="#b66565" stroke="#b66565"></path><path d="M909.1 300L885.8 189L817.8 279Z" fill="#9d3e40" stroke="#9d3e40"></path><path d="M150.3 139L233.6 258L251.9 209Z" fill="#a44849" stroke="#a44849"></path><path d="M251.9 209L233.6 258L279.9 300Z" fill="#973437" stroke="#973437"></path><path d="M322.2 0L213.9 0L256.9 42Z" fill="#b05b5c" stroke="#b05b5c"></path><path d="M256.9 42L150.3 139L298.9 178Z" fill="#973437" stroke="#973437"></path><path d="M213.9 0L141.6 24L256.9 42Z" fill="#aa5252" stroke="#aa5252"></path><path d="M141.6 24L150.3 139L256.9 42Z" fill="#7f2b30" stroke="#7f2b30"></path><path d="M827.8 300L909.1 300L817.8 279Z" fill="#aa5252" stroke="#aa5252"></path><path d="M1002.4 83L952.1 8L892.1 128Z" fill="#6f262b" stroke="#6f262b"></path><path d="M952.1 8L940.1 0L862.8 48Z" fill="#b05b5c" stroke="#b05b5c"></path><path d="M952.1 8L862.8 48L892.1 128Z" fill="#b66565" stroke="#b66565"></path><path d="M171.6 0L141.6 24L213.9 0Z" fill="#b05b5c" stroke="#b05b5c"></path><path d="M985.4 180L892.1 128L885.8 189Z" fill="#6f262b" stroke="#6f262b"></path><path d="M154.3 0L141.6 24L171.6 0Z" fill="#6f262b" stroke="#6f262b"></path><path d="M150.3 139L169.6 300L233.6 258Z" fill="#77292e" stroke="#77292e"></path><path d="M233.6 258L169.6 300L279.9 300Z" fill="#973437" stroke="#973437"></path><path d="M909.1 300L960.1 249L885.8 189Z" fill="#872e32" stroke="#872e32"></path><path d="M141.6 24L117.6 144L150.3 139Z" fill="#9d3e40" stroke="#9d3e40"></path><path d="M150.3 139L117.6 144L169.6 300Z" fill="#b66565" stroke="#b66565"></path><path d="M960.1 249L985.4 180L885.8 189Z" fill="#77292e" stroke="#77292e"></path><path d="M985.4 180L1002.4 83L892.1 128Z" fill="#b66565" stroke="#b66565"></path><path d="M1041.4 0L1020.4 15L1097.7 104Z" fill="#a44849" stroke="#a44849"></path><path d="M1002.4 83L1020.4 15L952.1 8Z" fill="#aa5252" stroke="#aa5252"></path><path d="M952.1 8L1041.4 0L940.1 0Z" fill="#b05b5c" stroke="#b05b5c"></path><path d="M1097.7 104L1020.4 15L1002.4 83Z" fill="#aa5252" stroke="#aa5252"></path><path d="M1020.4 15L1041.4 0L952.1 8Z" fill="#aa5252" stroke="#aa5252"></path><path d="M27.3 161L49.3 193L117.6 144Z" fill="#8f3135" stroke="#8f3135"></path><path d="M117.6 144L49.3 193L169.6 300Z" fill="#b05b5c" stroke="#b05b5c"></path><path d="M27.3 161L117.6 144L0 106Z" fill="#8f3135" stroke="#8f3135"></path><path d="M960.1 249L1052.7 181L985.4 180Z" fill="#a44849" stroke="#a44849"></path><path d="M985.4 180L1052.7 181L1002.4 83Z" fill="#872e32" stroke="#872e32"></path><path d="M1037.4 300L1052.7 181L960.1 249Z" fill="#aa5252" stroke="#aa5252"></path><path d="M909.1 300L1037.4 300L960.1 249Z" fill="#b05b5c" stroke="#b05b5c"></path><path d="M0 106L117.6 144L141.6 24Z" fill="#a44849" stroke="#a44849"></path><path d="M0 300L37.3 300L49.3 193Z" fill="#6f262b" stroke="#6f262b"></path><path d="M49.3 193L37.3 300L169.6 300Z" fill="#9d3e40" stroke="#9d3e40"></path><path d="M1200 127L1097.7 104L1200 210Z" fill="#b66565" stroke="#b66565"></path><path d="M1052.7 181L1097.7 104L1002.4 83Z" fill="#aa5252" stroke="#aa5252"></path><path d="M0 0L0 106L141.6 24Z" fill="#a44849" stroke="#a44849"></path><path d="M27.3 161L0 186L49.3 193Z" fill="#b66565" stroke="#b66565"></path><path d="M0 106L0 171L27.3 161Z" fill="#a44849" stroke="#a44849"></path><path d="M0 171L0 186L27.3 161Z" fill="#aa5252" stroke="#aa5252"></path><path d="M1117.7 28L1099.7 0L1041.4 0Z" fill="#7f2b30" stroke="#7f2b30"></path><path d="M154.3 0L0 0L141.6 24Z" fill="#8f3135" stroke="#8f3135"></path><path d="M1097.7 104L1117.7 28L1041.4 0Z" fill="#872e32" stroke="#872e32"></path><path d="M0 186L0 300L49.3 193Z" fill="#973437" stroke="#973437"></path><path d="M1037.4 300L1154.7 300L1052.7 181Z" fill="#77292e" stroke="#77292e"></path><path d="M1097.7 104L1200 127L1117.7 28Z" fill="#973437" stroke="#973437"></path><path d="M1200 210L1097.7 104L1052.7 181Z" fill="#b05b5c" stroke="#b05b5c"></path><path d="M1117.7 28L1200 0L1099.7 0Z" fill="#a44849" stroke="#a44849"></path><path d="M1200 226L1200 210L1052.7 181Z" fill="#8f3135" stroke="#8f3135"></path><path d="M1154.7 300L1200 226L1052.7 181Z" fill="#6f262b" stroke="#6f262b"></path><path d="M1200 127L1200 0L1117.7 28Z" fill="#872e32" stroke="#872e32"></path><path d="M1154.7 300L1200 300L1200 226Z" fill="#77292e" stroke="#77292e"></path></g></svg>