<svg id="visual" viewBox="0 0 1200 300" width="1200" height="300" xmlns="http://www.w3.org/2000/svg" xmlns:xlink="http://www.w3.org/1999/xlink" version="1.1"><g stroke-width="1" stroke-linejoin="bevel"><path d="M602 122L597 111L564 101Z" fill="#56b38a" stroke="#56b38a"></path><path d="M564 101L521 168L602 122Z" fill="#33a474" stroke="#33a474"></path><path d="M565 237L638 153L602 122Z" fill="#309b6e" stroke="#309b6e"></path><path d="M602 122L711 96L597 111Z" fill="#28815b" stroke="#28815b"></path><path d="M564 101L481 144L521 168Z" fill="#4bae83" stroke="#4bae83"></path><path d="M470 248L565 237L521 168Z" fill="#6bbd99" stroke="#6bbd99"></path><path d="M521 168L565 237L602 122Z" fill="#257855" stroke="#257855"></path><path d="M565 237L593 257L638 153Z" fill="#40a97b" stroke="#40a97b"></path><path d="M593 257L683 200L638 153Z" fill="#2d9267" stroke="#2d9267"></path><path d="M711 96L615 0L597 111Z" fill="#309b6e" stroke="#309b6e"></path><path d="M597 111L615 0L564 101Z" fill="#2a8961" stroke="#2a8961"></path><path d="M564 101L440 64L481 144Z" fill="#6bbd99" stroke="#6bbd99"></path><path d="M711 96L602 122L638 153Z" fill="#56b38a" stroke="#56b38a"></path><path d="M683 200L711 96L638 153Z" fill="#40a97b" stroke="#40a97b"></path><path d="M492 0L440 64L564 101Z" fill="#4bae83" stroke="#4bae83"></path><path d="M615 0L492 0L564 101Z" fill="#309b6e" stroke="#309b6e"></path><path d="M414 232L470 248L481 144Z" fill="#309b6e" stroke="#309b6e"></path><path d="M481 144L470 248L521 168Z" fill="#40a97b" stroke="#40a97b"></path><path d="M565 237L560 300L593 257Z" fill="#309b6e" stroke="#309b6e"></path><path d="M440 64L414 117L481 144Z" fill="#61b892" stroke="#61b892"></path><path d="M492 0L477 0L440 64Z" fill="#33a474" stroke="#33a474"></path><path d="M489 300L560 300L565 237Z" fill="#309b6e" stroke="#309b6e"></path><path d="M593 257L683 300L683 200Z" fill="#6bbd99" stroke="#6bbd99"></path><path d="M711 96L713 0L615 0Z" fill="#33a474" stroke="#33a474"></path><path d="M733 300L755 183L683 200Z" fill="#56b38a" stroke="#56b38a"></path><path d="M683 200L755 183L711 96Z" fill="#33a474" stroke="#33a474"></path><path d="M711 96L765 0L713 0Z" fill="#2d9267" stroke="#2d9267"></path><path d="M414 117L414 232L481 144Z" fill="#61b892" stroke="#61b892"></path><path d="M470 248L489 300L565 237Z" fill="#61b892" stroke="#61b892"></path><path d="M474 300L489 300L470 248Z" fill="#2d9267" stroke="#2d9267"></path><path d="M407 300L474 300L470 248Z" fill="#61b892" stroke="#61b892"></path><path d="M560 300L683 300L593 257Z" fill="#6bbd99" stroke="#6bbd99"></path><path d="M755 183L784 89L711 96Z" fill="#2d9267" stroke="#2d9267"></path><path d="M477 0L401 0L440 64Z" fill="#28815b" stroke="#28815b"></path><path d="M440 64L343 100L414 117Z" fill="#6bbd99" stroke="#6bbd99"></path><path d="M414 117L321 141L414 232Z" fill="#2a8961" stroke="#2a8961"></path><path d="M733 300L791 183L755 183Z" fill="#309b6e" stroke="#309b6e"></path><path d="M755 183L812 142L784 89Z" fill="#2d9267" stroke="#2d9267"></path><path d="M784 89L765 0L711 96Z" fill="#56b38a" stroke="#56b38a"></path><path d="M401 0L343 100L440 64Z" fill="#4bae83" stroke="#4bae83"></path><path d="M683 300L733 300L683 200Z" fill="#2d9267" stroke="#2d9267"></path><path d="M827 205L812 142L791 183Z" fill="#28815b" stroke="#28815b"></path><path d="M791 183L812 142L755 183Z" fill="#257855" stroke="#257855"></path><path d="M784 89L853 78L765 0Z" fill="#6bbd99" stroke="#6bbd99"></path><path d="M414 232L407 300L470 248Z" fill="#33a474" stroke="#33a474"></path><path d="M335 300L407 300L414 232Z" fill="#28815b" stroke="#28815b"></path><path d="M343 100L321 141L414 117Z" fill="#2a8961" stroke="#2a8961"></path><path d="M733 300L827 205L791 183Z" fill="#33a474" stroke="#33a474"></path><path d="M870 97L853 78L812 142Z" fill="#4bae83" stroke="#4bae83"></path><path d="M812 142L853 78L784 89Z" fill="#40a97b" stroke="#40a97b"></path><path d="M401 0L317 0L343 100Z" fill="#4bae83" stroke="#4bae83"></path><path d="M343 100L270 112L321 141Z" fill="#56b38a" stroke="#56b38a"></path><path d="M295 255L335 300L414 232Z" fill="#4bae83" stroke="#4bae83"></path><path d="M827 205L870 97L812 142Z" fill="#61b892" stroke="#61b892"></path><path d="M317 0L270 112L343 100Z" fill="#28815b" stroke="#28815b"></path><path d="M321 141L295 255L414 232Z" fill="#40a97b" stroke="#40a97b"></path><path d="M249 146L295 255L321 141Z" fill="#2d9267" stroke="#2d9267"></path><path d="M901 0L858 0L853 78Z" fill="#56b38a" stroke="#56b38a"></path><path d="M853 78L858 0L765 0Z" fill="#56b38a" stroke="#56b38a"></path><path d="M270 112L249 146L321 141Z" fill="#4bae83" stroke="#4bae83"></path><path d="M247 111L249 146L270 112Z" fill="#6bbd99" stroke="#6bbd99"></path><path d="M317 0L247 111L270 112Z" fill="#2a8961" stroke="#2a8961"></path><path d="M733 300L855 300L827 205Z" fill="#6bbd99" stroke="#6bbd99"></path><path d="M827 205L933 128L870 97Z" fill="#2a8961" stroke="#2a8961"></path><path d="M855 300L857 300L827 205Z" fill="#6bbd99" stroke="#6bbd99"></path><path d="M243 300L249 258L187 238Z" fill="#2a8961" stroke="#2a8961"></path><path d="M249 146L249 258L295 255Z" fill="#6bbd99" stroke="#6bbd99"></path><path d="M295 255L243 300L335 300Z" fill="#61b892" stroke="#61b892"></path><path d="M942 32L853 78L870 97Z" fill="#33a474" stroke="#33a474"></path><path d="M942 32L901 0L853 78Z" fill="#2a8961" stroke="#2a8961"></path><path d="M942 224L933 128L827 205Z" fill="#257855" stroke="#257855"></path><path d="M187 238L249 258L249 146Z" fill="#4bae83" stroke="#4bae83"></path><path d="M249 258L243 300L295 255Z" fill="#28815b" stroke="#28815b"></path><path d="M857 300L942 224L827 205Z" fill="#257855" stroke="#257855"></path><path d="M969 109L942 32L933 128Z" fill="#309b6e" stroke="#309b6e"></path><path d="M933 128L942 32L870 97Z" fill="#33a474" stroke="#33a474"></path><path d="M1007 203L969 109L933 128Z" fill="#309b6e" stroke="#309b6e"></path><path d="M317 0L196 0L247 111Z" fill="#2d9267" stroke="#2d9267"></path><path d="M108 123L187 238L249 146Z" fill="#4bae83" stroke="#4bae83"></path><path d="M108 123L249 146L247 111Z" fill="#2d9267" stroke="#2d9267"></path><path d="M984 300L1007 203L942 224Z" fill="#33a474" stroke="#33a474"></path><path d="M942 224L1007 203L933 128Z" fill="#56b38a" stroke="#56b38a"></path><path d="M969 109L996 0L942 32Z" fill="#4bae83" stroke="#4bae83"></path><path d="M1075 78L996 0L969 109Z" fill="#2d9267" stroke="#2d9267"></path><path d="M942 32L996 0L901 0Z" fill="#28815b" stroke="#28815b"></path><path d="M857 300L984 300L942 224Z" fill="#257855" stroke="#257855"></path><path d="M81 247L156 300L187 238Z" fill="#6bbd99" stroke="#6bbd99"></path><path d="M187 238L156 300L243 300Z" fill="#4bae83" stroke="#4bae83"></path><path d="M196 0L123 79L247 111Z" fill="#56b38a" stroke="#56b38a"></path><path d="M123 79L108 123L247 111Z" fill="#2a8961" stroke="#2a8961"></path><path d="M123 79L108 105L108 123Z" fill="#2a8961" stroke="#2a8961"></path><path d="M1086 300L1038 195L1007 203Z" fill="#6bbd99" stroke="#6bbd99"></path><path d="M1007 203L1038 195L969 109Z" fill="#257855" stroke="#257855"></path><path d="M196 0L109 0L123 79Z" fill="#309b6e" stroke="#309b6e"></path><path d="M123 79L36 0L108 105Z" fill="#6bbd99" stroke="#6bbd99"></path><path d="M1159 170L1069 142L1038 195Z" fill="#2d9267" stroke="#2d9267"></path><path d="M1038 195L1069 142L969 109Z" fill="#6bbd99" stroke="#6bbd99"></path><path d="M1069 142L1075 78L969 109Z" fill="#56b38a" stroke="#56b38a"></path><path d="M1075 78L1063 0L996 0Z" fill="#309b6e" stroke="#309b6e"></path><path d="M108 123L81 247L187 238Z" fill="#2a8961" stroke="#2a8961"></path><path d="M37 160L81 247L108 123Z" fill="#309b6e" stroke="#309b6e"></path><path d="M37 160L108 123L108 105Z" fill="#309b6e" stroke="#309b6e"></path><path d="M0 87L37 160L108 105Z" fill="#4bae83" stroke="#4bae83"></path><path d="M984 300L1086 300L1007 203Z" fill="#309b6e" stroke="#309b6e"></path><path d="M1146 40L1100 0L1075 78Z" fill="#2d9267" stroke="#2d9267"></path><path d="M1146 40L1075 78L1159 170Z" fill="#257855" stroke="#257855"></path><path d="M1075 78L1100 0L1063 0Z" fill="#61b892" stroke="#61b892"></path><path d="M0 300L56 300L81 247Z" fill="#33a474" stroke="#33a474"></path><path d="M81 247L56 300L156 300Z" fill="#2a8961" stroke="#2a8961"></path><path d="M109 0L36 0L123 79Z" fill="#257855" stroke="#257855"></path><path d="M1086 300L1117 265L1038 195Z" fill="#61b892" stroke="#61b892"></path><path d="M0 87L0 157L37 160Z" fill="#61b892" stroke="#61b892"></path><path d="M37 160L0 199L81 247Z" fill="#2a8961" stroke="#2a8961"></path><path d="M36 0L0 87L108 105Z" fill="#257855" stroke="#257855"></path><path d="M0 157L0 199L37 160Z" fill="#2d9267" stroke="#2d9267"></path><path d="M1159 170L1075 78L1069 142Z" fill="#56b38a" stroke="#56b38a"></path><path d="M1117 265L1159 170L1038 195Z" fill="#33a474" stroke="#33a474"></path><path d="M1086 300L1136 300L1117 265Z" fill="#309b6e" stroke="#309b6e"></path><path d="M1200 191L1200 189L1159 170Z" fill="#2d9267" stroke="#2d9267"></path><path d="M36 0L0 0L0 87Z" fill="#28815b" stroke="#28815b"></path><path d="M0 199L0 300L81 247Z" fill="#309b6e" stroke="#309b6e"></path><path d="M1200 191L1159 170L1117 265Z" fill="#61b892" stroke="#61b892"></path><path d="M1159 170L1200 35L1146 40Z" fill="#61b892" stroke="#61b892"></path><path d="M1200 300L1200 191L1117 265Z" fill="#2d9267" stroke="#2d9267"></path><path d="M1200 189L1200 35L1159 170Z" fill="#61b892" stroke="#61b892"></path><path d="M1146 40L1200 0L1100 0Z" fill="#6bbd99" stroke="#6bbd99"></path><path d="M1200 35L1200 0L1146 40Z" fill="#40a97b" stroke="#40a97b"></path><path d="M1136 300L1200 300L1117 265Z" fill="#2a8961" stroke="#2a8961"></path></g></svg>