<svg id="visual" viewBox="0 0 1200 300" width="1200" height="300" xmlns="http://www.w3.org/2000/svg" xmlns:xlink="http://www.w3.org/1999/xlink" version="1.1"><g stroke-width="1" stroke-linejoin="bevel"><path d="M598 152L562 89L487 172Z" fill="#69a9c1" stroke="#69a9c1"></path><path d="M487 172L492 204L598 152Z" fill="#387f97" stroke="#387f97"></path><path d="M598 152L566 68L562 89Z" fill="#387f97" stroke="#387f97"></path><path d="M414 43L428 156L487 172Z" fill="#4298b4" stroke="#4298b4"></path><path d="M414 43L487 172L562 89Z" fill="#3b87a0" stroke="#3b87a0"></path><path d="M487 172L429 200L492 204Z" fill="#69a9c1" stroke="#69a9c1"></path><path d="M428 156L429 200L487 172Z" fill="#4298b4" stroke="#4298b4"></path><path d="M515 300L611 264L492 204Z" fill="#7fb5c9" stroke="#7fb5c9"></path><path d="M492 204L611 264L598 152Z" fill="#316f84" stroke="#316f84"></path><path d="M566 68L525 0L562 89Z" fill="#34778d" stroke="#34778d"></path><path d="M566 68L574 0L525 0Z" fill="#509eb8" stroke="#509eb8"></path><path d="M692 0L574 0L566 68Z" fill="#5da4bc" stroke="#5da4bc"></path><path d="M611 264L665 235L598 152Z" fill="#4298b4" stroke="#4298b4"></path><path d="M598 152L703 69L566 68Z" fill="#387f97" stroke="#387f97"></path><path d="M451 300L515 300L492 204Z" fill="#3f90aa" stroke="#3f90aa"></path><path d="M451 0L414 43L562 89Z" fill="#4298b4" stroke="#4298b4"></path><path d="M428 156L358 132L429 200Z" fill="#69a9c1" stroke="#69a9c1"></path><path d="M515 300L582 300L611 264Z" fill="#5da4bc" stroke="#5da4bc"></path><path d="M611 264L698 300L665 235Z" fill="#509eb8" stroke="#509eb8"></path><path d="M525 0L451 0L562 89Z" fill="#509eb8" stroke="#509eb8"></path><path d="M429 200L451 300L492 204Z" fill="#387f97" stroke="#387f97"></path><path d="M715 192L703 69L598 152Z" fill="#7fb5c9" stroke="#7fb5c9"></path><path d="M414 43L358 132L428 156Z" fill="#34778d" stroke="#34778d"></path><path d="M429 200L372 300L451 300Z" fill="#3b87a0" stroke="#3b87a0"></path><path d="M665 235L715 192L598 152Z" fill="#4298b4" stroke="#4298b4"></path><path d="M358 132L355 229L429 200Z" fill="#3b87a0" stroke="#3b87a0"></path><path d="M665 235L735 203L715 192Z" fill="#3f90aa" stroke="#3f90aa"></path><path d="M784 115L727 53L703 69Z" fill="#74afc5" stroke="#74afc5"></path><path d="M714 300L735 203L665 235Z" fill="#387f97" stroke="#387f97"></path><path d="M760 143L703 69L715 192Z" fill="#3f90aa" stroke="#3f90aa"></path><path d="M703 69L692 0L566 68Z" fill="#5da4bc" stroke="#5da4bc"></path><path d="M727 53L692 0L703 69Z" fill="#3f90aa" stroke="#3f90aa"></path><path d="M414 43L342 61L358 132Z" fill="#316f84" stroke="#316f84"></path><path d="M358 132L320 197L355 229Z" fill="#5da4bc" stroke="#5da4bc"></path><path d="M355 0L342 61L414 43Z" fill="#3b87a0" stroke="#3b87a0"></path><path d="M342 61L327 86L358 132Z" fill="#7fb5c9" stroke="#7fb5c9"></path><path d="M735 203L760 143L715 192Z" fill="#509eb8" stroke="#509eb8"></path><path d="M582 300L698 300L611 264Z" fill="#316f84" stroke="#316f84"></path><path d="M819 203L784 115L760 143Z" fill="#74afc5" stroke="#74afc5"></path><path d="M307 140L320 197L358 132Z" fill="#34778d" stroke="#34778d"></path><path d="M355 229L372 300L429 200Z" fill="#34778d" stroke="#34778d"></path><path d="M295 300L372 300L355 229Z" fill="#69a9c1" stroke="#69a9c1"></path><path d="M327 86L307 140L358 132Z" fill="#316f84" stroke="#316f84"></path><path d="M451 0L355 0L414 43Z" fill="#3f90aa" stroke="#3f90aa"></path><path d="M342 61L331 0L327 86Z" fill="#316f84" stroke="#316f84"></path><path d="M195 38L228 167L307 140Z" fill="#4298b4" stroke="#4298b4"></path><path d="M698 300L714 300L665 235Z" fill="#7fb5c9" stroke="#7fb5c9"></path><path d="M819 203L760 143L735 203Z" fill="#7fb5c9" stroke="#7fb5c9"></path><path d="M760 143L784 115L703 69Z" fill="#509eb8" stroke="#509eb8"></path><path d="M727 53L768 0L692 0Z" fill="#316f84" stroke="#316f84"></path><path d="M355 0L331 0L342 61Z" fill="#316f84" stroke="#316f84"></path><path d="M803 32L768 0L727 53Z" fill="#509eb8" stroke="#509eb8"></path><path d="M714 300L819 203L735 203Z" fill="#7fb5c9" stroke="#7fb5c9"></path><path d="M784 115L803 32L727 53Z" fill="#316f84" stroke="#316f84"></path><path d="M828 0L803 32L922 74Z" fill="#3f90aa" stroke="#3f90aa"></path><path d="M247 300L295 300L320 197Z" fill="#69a9c1" stroke="#69a9c1"></path><path d="M320 197L295 300L355 229Z" fill="#7fb5c9" stroke="#7fb5c9"></path><path d="M307 140L228 167L320 197Z" fill="#509eb8" stroke="#509eb8"></path><path d="M195 38L307 140L327 86Z" fill="#69a9c1" stroke="#69a9c1"></path><path d="M922 74L803 32L784 115Z" fill="#387f97" stroke="#387f97"></path><path d="M803 32L828 0L768 0Z" fill="#3f90aa" stroke="#3f90aa"></path><path d="M197 259L247 300L320 197Z" fill="#3b87a0" stroke="#3b87a0"></path><path d="M909 202L893 176L819 203Z" fill="#316f84" stroke="#316f84"></path><path d="M819 203L893 176L784 115Z" fill="#69a9c1" stroke="#69a9c1"></path><path d="M331 0L195 38L327 86Z" fill="#5da4bc" stroke="#5da4bc"></path><path d="M228 167L197 259L320 197Z" fill="#316f84" stroke="#316f84"></path><path d="M714 300L864 300L819 203Z" fill="#5da4bc" stroke="#5da4bc"></path><path d="M181 235L197 259L228 167Z" fill="#387f97" stroke="#387f97"></path><path d="M107 108L181 235L228 167Z" fill="#387f97" stroke="#387f97"></path><path d="M864 300L909 202L819 203Z" fill="#3f90aa" stroke="#3f90aa"></path><path d="M893 176L922 74L784 115Z" fill="#387f97" stroke="#387f97"></path><path d="M331 0L189 0L195 38Z" fill="#5da4bc" stroke="#5da4bc"></path><path d="M195 38L109 95L228 167Z" fill="#4298b4" stroke="#4298b4"></path><path d="M951 101L922 74L893 176Z" fill="#316f84" stroke="#316f84"></path><path d="M934 300L940 201L909 202Z" fill="#34778d" stroke="#34778d"></path><path d="M909 202L940 201L893 176Z" fill="#5da4bc" stroke="#5da4bc"></path><path d="M967 0L921 0L922 74Z" fill="#34778d" stroke="#34778d"></path><path d="M922 74L921 0L828 0Z" fill="#3b87a0" stroke="#3b87a0"></path><path d="M971 136L951 101L893 176Z" fill="#316f84" stroke="#316f84"></path><path d="M189 0L147 0L195 38Z" fill="#34778d" stroke="#34778d"></path><path d="M864 300L934 300L909 202Z" fill="#4298b4" stroke="#4298b4"></path><path d="M940 201L971 136L893 176Z" fill="#69a9c1" stroke="#69a9c1"></path><path d="M1018 167L971 136L940 201Z" fill="#4298b4" stroke="#4298b4"></path><path d="M951 101L967 0L922 74Z" fill="#69a9c1" stroke="#69a9c1"></path><path d="M147 0L109 95L195 38Z" fill="#3b87a0" stroke="#3b87a0"></path><path d="M109 95L107 108L228 167Z" fill="#34778d" stroke="#34778d"></path><path d="M1022 0L967 0L951 101Z" fill="#3b87a0" stroke="#3b87a0"></path><path d="M934 300L965 300L940 201Z" fill="#3b87a0" stroke="#3b87a0"></path><path d="M70 58L87 109L109 95Z" fill="#74afc5" stroke="#74afc5"></path><path d="M109 95L87 109L107 108Z" fill="#69a9c1" stroke="#69a9c1"></path><path d="M107 108L47 224L181 235Z" fill="#316f84" stroke="#316f84"></path><path d="M181 235L113 300L197 259Z" fill="#5da4bc" stroke="#5da4bc"></path><path d="M47 224L113 300L181 235Z" fill="#3f90aa" stroke="#3f90aa"></path><path d="M197 259L113 300L247 300Z" fill="#74afc5" stroke="#74afc5"></path><path d="M147 0L70 58L109 95Z" fill="#34778d" stroke="#34778d"></path><path d="M87 109L47 224L107 108Z" fill="#3b87a0" stroke="#3b87a0"></path><path d="M1064 203L1018 167L940 201Z" fill="#69a9c1" stroke="#69a9c1"></path><path d="M1075 39L1022 0L951 101Z" fill="#34778d" stroke="#34778d"></path><path d="M0 174L47 224L87 109Z" fill="#509eb8" stroke="#509eb8"></path><path d="M1075 39L951 101L971 136Z" fill="#3b87a0" stroke="#3b87a0"></path><path d="M147 0L40 0L70 58Z" fill="#316f84" stroke="#316f84"></path><path d="M70 58L0 174L87 109Z" fill="#509eb8" stroke="#509eb8"></path><path d="M0 300L39 300L47 224Z" fill="#387f97" stroke="#387f97"></path><path d="M47 224L39 300L113 300Z" fill="#387f97" stroke="#387f97"></path><path d="M965 300L1064 203L940 201Z" fill="#5da4bc" stroke="#5da4bc"></path><path d="M1018 167L1075 39L971 136Z" fill="#5da4bc" stroke="#5da4bc"></path><path d="M0 33L0 174L70 58Z" fill="#509eb8" stroke="#509eb8"></path><path d="M1064 203L1082 160L1018 167Z" fill="#3f90aa" stroke="#3f90aa"></path><path d="M0 174L0 210L47 224Z" fill="#509eb8" stroke="#509eb8"></path><path d="M965 300L1060 300L1064 203Z" fill="#3b87a0" stroke="#3b87a0"></path><path d="M1200 194L1140 99L1082 160Z" fill="#3f90aa" stroke="#3f90aa"></path><path d="M1082 160L1075 39L1018 167Z" fill="#74afc5" stroke="#74afc5"></path><path d="M40 0L0 33L70 58Z" fill="#4298b4" stroke="#4298b4"></path><path d="M40 0L0 0L0 33Z" fill="#387f97" stroke="#387f97"></path><path d="M0 210L0 300L47 224Z" fill="#509eb8" stroke="#509eb8"></path><path d="M1140 99L1121 0L1075 39Z" fill="#5da4bc" stroke="#5da4bc"></path><path d="M1075 39L1121 0L1022 0Z" fill="#316f84" stroke="#316f84"></path><path d="M1140 99L1075 39L1082 160Z" fill="#34778d" stroke="#34778d"></path><path d="M1161 230L1082 160L1064 203Z" fill="#316f84" stroke="#316f84"></path><path d="M1060 300L1139 300L1064 203Z" fill="#3b87a0" stroke="#3b87a0"></path><path d="M1139 300L1161 230L1064 203Z" fill="#5da4bc" stroke="#5da4bc"></path><path d="M1200 194L1200 123L1140 99Z" fill="#34778d" stroke="#34778d"></path><path d="M1140 99L1200 0L1121 0Z" fill="#69a9c1" stroke="#69a9c1"></path><path d="M1200 194L1082 160L1161 230Z" fill="#74afc5" stroke="#74afc5"></path><path d="M1200 123L1200 111L1140 99Z" fill="#69a9c1" stroke="#69a9c1"></path><path d="M1200 300L1200 194L1161 230Z" fill="#3b87a0" stroke="#3b87a0"></path><path d="M1200 111L1200 0L1140 99Z" fill="#4298b4" stroke="#4298b4"></path><path d="M1139 300L1200 300L1161 230Z" fill="#4298b4" stroke="#4298b4"></path></g></svg>