<svg id="visual" viewBox="0 0 1200 300" width="1200" height="300" xmlns="http://www.w3.org/2000/svg" xmlns:xlink="http://www.w3.org/1999/xlink" version="1.1"><g stroke-width="1" stroke-linejoin="bevel"><path d="M590 151L623 103L590 88Z" fill="#71747a" stroke="#71747a"></path><path d="M590 151L671 144L623 103Z" fill="#5f6166" stroke="#5f6166"></path><path d="M671 144L705 138L623 103Z" fill="#6a6d73" stroke="#6a6d73"></path><path d="M655 0L564 0L590 88Z" fill="#5f6166" stroke="#5f6166"></path><path d="M655 0L590 88L623 103Z" fill="#5f6166" stroke="#5f6166"></path><path d="M480 228L554 253L590 151Z" fill="#4e5054" stroke="#4e5054"></path><path d="M742 59L655 0L623 103Z" fill="#878a8f" stroke="#878a8f"></path><path d="M590 151L619 253L671 144Z" fill="#53565a" stroke="#53565a"></path><path d="M671 144L717 226L705 138Z" fill="#878a8f" stroke="#878a8f"></path><path d="M464 174L590 151L590 88Z" fill="#595b60" stroke="#595b60"></path><path d="M590 151L554 253L619 253Z" fill="#53565a" stroke="#53565a"></path><path d="M450 67L464 174L590 88Z" fill="#595b60" stroke="#595b60"></path><path d="M564 0L450 67L590 88Z" fill="#4e5054" stroke="#4e5054"></path><path d="M705 138L742 59L623 103Z" fill="#595b60" stroke="#595b60"></path><path d="M464 174L480 228L590 151Z" fill="#595b60" stroke="#595b60"></path><path d="M619 253L717 226L671 144Z" fill="#5f6166" stroke="#5f6166"></path><path d="M705 138L785 76L742 59Z" fill="#878a8f" stroke="#878a8f"></path><path d="M742 59L711 0L655 0Z" fill="#4e5054" stroke="#4e5054"></path><path d="M564 0L477 0L450 67Z" fill="#6a6d73" stroke="#6a6d73"></path><path d="M450 67L428 181L464 174Z" fill="#64676d" stroke="#64676d"></path><path d="M464 174L427 230L480 228Z" fill="#8f9296" stroke="#8f9296"></path><path d="M554 253L615 300L619 253Z" fill="#808388" stroke="#808388"></path><path d="M619 253L740 300L717 226Z" fill="#6a6d73" stroke="#6a6d73"></path><path d="M533 300L615 300L554 253Z" fill="#787c81" stroke="#787c81"></path><path d="M473 300L533 300L480 228Z" fill="#808388" stroke="#808388"></path><path d="M480 228L533 300L554 253Z" fill="#53565a" stroke="#53565a"></path><path d="M477 0L413 59L450 67Z" fill="#595b60" stroke="#595b60"></path><path d="M450 67L413 59L428 181Z" fill="#71747a" stroke="#71747a"></path><path d="M807 148L785 76L705 138Z" fill="#64676d" stroke="#64676d"></path><path d="M742 59L792 0L711 0Z" fill="#878a8f" stroke="#878a8f"></path><path d="M328 238L427 230L428 181Z" fill="#71747a" stroke="#71747a"></path><path d="M428 181L427 230L464 174Z" fill="#53565a" stroke="#53565a"></path><path d="M740 300L774 234L717 226Z" fill="#878a8f" stroke="#878a8f"></path><path d="M717 226L807 148L705 138Z" fill="#787c81" stroke="#787c81"></path><path d="M774 234L807 148L717 226Z" fill="#53565a" stroke="#53565a"></path><path d="M427 230L473 300L480 228Z" fill="#6a6d73" stroke="#6a6d73"></path><path d="M863 50L792 0L785 76Z" fill="#878a8f" stroke="#878a8f"></path><path d="M785 76L792 0L742 59Z" fill="#878a8f" stroke="#878a8f"></path><path d="M615 300L740 300L619 253Z" fill="#5f6166" stroke="#5f6166"></path><path d="M740 300L768 300L774 234Z" fill="#53565a" stroke="#53565a"></path><path d="M896 217L890 145L807 148Z" fill="#6a6d73" stroke="#6a6d73"></path><path d="M477 0L368 0L413 59Z" fill="#64676d" stroke="#64676d"></path><path d="M413 59L318 146L428 181Z" fill="#787c81" stroke="#787c81"></path><path d="M890 145L863 50L807 148Z" fill="#808388" stroke="#808388"></path><path d="M807 148L863 50L785 76Z" fill="#787c81" stroke="#787c81"></path><path d="M313 51L318 146L413 59Z" fill="#878a8f" stroke="#878a8f"></path><path d="M427 230L372 300L473 300Z" fill="#5f6166" stroke="#5f6166"></path><path d="M368 0L313 51L413 59Z" fill="#53565a" stroke="#53565a"></path><path d="M328 238L372 300L427 230Z" fill="#808388" stroke="#808388"></path><path d="M343 0L313 51L368 0Z" fill="#808388" stroke="#808388"></path><path d="M318 146L328 238L428 181Z" fill="#787c81" stroke="#787c81"></path><path d="M896 217L807 148L774 234Z" fill="#8f9296" stroke="#8f9296"></path><path d="M863 50L874 0L792 0Z" fill="#5f6166" stroke="#5f6166"></path><path d="M963 62L874 0L863 50Z" fill="#878a8f" stroke="#878a8f"></path><path d="M328 238L337 300L372 300Z" fill="#808388" stroke="#808388"></path><path d="M864 300L896 217L774 234Z" fill="#4e5054" stroke="#4e5054"></path><path d="M768 300L864 300L774 234Z" fill="#6a6d73" stroke="#6a6d73"></path><path d="M343 0L261 0L313 51Z" fill="#808388" stroke="#808388"></path><path d="M313 51L232 143L318 146Z" fill="#8f9296" stroke="#8f9296"></path><path d="M318 146L232 143L328 238Z" fill="#5f6166" stroke="#5f6166"></path><path d="M328 238L218 250L337 300Z" fill="#4e5054" stroke="#4e5054"></path><path d="M226 57L232 143L313 51Z" fill="#64676d" stroke="#64676d"></path><path d="M981 148L963 62L890 145Z" fill="#64676d" stroke="#64676d"></path><path d="M890 145L963 62L863 50Z" fill="#8f9296" stroke="#8f9296"></path><path d="M981 148L890 145L896 217Z" fill="#878a8f" stroke="#878a8f"></path><path d="M261 0L226 57L313 51Z" fill="#878a8f" stroke="#878a8f"></path><path d="M864 300L960 233L896 217Z" fill="#4e5054" stroke="#4e5054"></path><path d="M960 233L981 148L896 217Z" fill="#53565a" stroke="#53565a"></path><path d="M190 206L218 250L232 143Z" fill="#878a8f" stroke="#878a8f"></path><path d="M232 143L218 250L328 238Z" fill="#787c81" stroke="#787c81"></path><path d="M963 62L990 0L874 0Z" fill="#53565a" stroke="#53565a"></path><path d="M1027 70L990 0L963 62Z" fill="#6a6d73" stroke="#6a6d73"></path><path d="M174 148L190 206L232 143Z" fill="#878a8f" stroke="#878a8f"></path><path d="M864 300L971 300L960 233Z" fill="#808388" stroke="#808388"></path><path d="M1053 223L1059 133L981 148Z" fill="#5f6166" stroke="#5f6166"></path><path d="M140 300L214 300L218 250Z" fill="#808388" stroke="#808388"></path><path d="M218 250L214 300L337 300Z" fill="#787c81" stroke="#787c81"></path><path d="M226 57L174 148L232 143Z" fill="#64676d" stroke="#64676d"></path><path d="M190 206L140 300L218 250Z" fill="#5f6166" stroke="#5f6166"></path><path d="M261 0L187 0L226 57Z" fill="#878a8f" stroke="#878a8f"></path><path d="M226 57L150 71L174 148Z" fill="#8f9296" stroke="#8f9296"></path><path d="M1059 133L1027 70L981 148Z" fill="#787c81" stroke="#787c81"></path><path d="M981 148L1027 70L963 62Z" fill="#8f9296" stroke="#8f9296"></path><path d="M187 0L150 71L226 57Z" fill="#53565a" stroke="#53565a"></path><path d="M67 231L140 300L190 206Z" fill="#8f9296" stroke="#8f9296"></path><path d="M1053 223L981 148L960 233Z" fill="#808388" stroke="#808388"></path><path d="M971 300L1053 223L960 233Z" fill="#53565a" stroke="#53565a"></path><path d="M1089 94L1055 0L1027 70Z" fill="#4e5054" stroke="#4e5054"></path><path d="M1027 70L1055 0L990 0Z" fill="#64676d" stroke="#64676d"></path><path d="M99 150L190 206L174 148Z" fill="#5f6166" stroke="#5f6166"></path><path d="M1093 174L1089 94L1059 133Z" fill="#5f6166" stroke="#5f6166"></path><path d="M1059 133L1089 94L1027 70Z" fill="#5f6166" stroke="#5f6166"></path><path d="M971 300L1057 300L1053 223Z" fill="#71747a" stroke="#71747a"></path><path d="M1053 223L1093 174L1059 133Z" fill="#53565a" stroke="#53565a"></path><path d="M150 71L99 150L174 148Z" fill="#6a6d73" stroke="#6a6d73"></path><path d="M83 73L99 150L150 71Z" fill="#595b60" stroke="#595b60"></path><path d="M1139 225L1093 174L1053 223Z" fill="#8f9296" stroke="#8f9296"></path><path d="M187 0L99 0L150 71Z" fill="#4e5054" stroke="#4e5054"></path><path d="M99 0L83 73L150 71Z" fill="#64676d" stroke="#64676d"></path><path d="M0 146L67 231L99 150Z" fill="#4e5054" stroke="#4e5054"></path><path d="M99 150L67 231L190 206Z" fill="#64676d" stroke="#64676d"></path><path d="M1057 300L1105 300L1053 223Z" fill="#53565a" stroke="#53565a"></path><path d="M1093 174L1200 125L1089 94Z" fill="#8f9296" stroke="#8f9296"></path><path d="M1105 300L1139 225L1053 223Z" fill="#71747a" stroke="#71747a"></path><path d="M1089 94L1143 0L1055 0Z" fill="#787c81" stroke="#787c81"></path><path d="M1200 77L1143 0L1089 94Z" fill="#8f9296" stroke="#8f9296"></path><path d="M67 231L62 300L140 300Z" fill="#5f6166" stroke="#5f6166"></path><path d="M0 0L0 104L83 73Z" fill="#5f6166" stroke="#5f6166"></path><path d="M83 73L0 104L99 150Z" fill="#64676d" stroke="#64676d"></path><path d="M67 231L0 227L62 300Z" fill="#878a8f" stroke="#878a8f"></path><path d="M0 104L0 146L99 150Z" fill="#878a8f" stroke="#878a8f"></path><path d="M1200 193L1093 174L1139 225Z" fill="#8f9296" stroke="#8f9296"></path><path d="M1200 193L1200 125L1093 174Z" fill="#878a8f" stroke="#878a8f"></path><path d="M0 146L0 227L67 231Z" fill="#595b60" stroke="#595b60"></path><path d="M1200 125L1200 77L1089 94Z" fill="#6a6d73" stroke="#6a6d73"></path><path d="M99 0L0 0L83 73Z" fill="#53565a" stroke="#53565a"></path><path d="M1200 300L1200 193L1139 225Z" fill="#6a6d73" stroke="#6a6d73"></path><path d="M1200 77L1200 0L1143 0Z" fill="#8f9296" stroke="#8f9296"></path><path d="M0 227L0 300L62 300Z" fill="#787c81" stroke="#787c81"></path><path d="M1105 300L1200 300L1139 225Z" fill="#595b60" stroke="#595b60"></path></g></svg>