<svg t="1712815104011" class="icon" viewBox="0 0 1024 1024" version="1.1" xmlns="http://www.w3.org/2000/svg" p-id="16443" width="200" height="200"><path d="M855.552 216.864c35.616-66.144-5.088-152.672-5.088-152.672-91.584 0-157.76 61.056-157.76 61.056-35.616-20.352-152.672-20.352-152.672-20.352s-117.056 0-152.672 20.352c0 0-66.144-61.056-157.76-61.056 0 0-40.704 86.496-5.088 152.672 0 0-81.408 76.32-50.88 239.168 28.704 153.024 162.848 193.376 249.344 193.376 0 0-35.616 30.528-30.528 81.408 0 0-50.88 30.528-101.76 10.176s-76.32-71.232-76.32-71.232-50.88-66.144-101.76-40.704c0 0-15.264 15.264 40.704 40.704 0 0 40.704 61.056 55.968 96.672s96.672 66.144 178.112 45.792v117.024s0 10.176-20.352 15.264-20.352 15.264-10.176 15.264h366.4c10.176 0 10.176-10.176-10.176-15.264s-20.352-15.264-20.352-15.264V812.224s0.448-61.024 0-81.408c-1.12-51.136-35.616-81.408-35.616-81.408 86.496 0 220.64-40.352 249.344-193.376 30.528-162.848-50.88-239.168-50.88-239.168z" fill="var(--icon-color-main)" p-id="16444"></path></svg>


