<svg t="1712814641182" class="icon" viewBox="0 0 1024 1024" version="1.1" xmlns="http://www.w3.org/2000/svg" p-id="11268" width="200" height="200"><path d="M832 106.666667H192C144.853333 106.666667 106.666667 144.853333 106.666667 192v128h810.666666V192c0-47.146667-38.186667-85.333333-85.333333-85.333333zM106.666667 384v448c0 47.146667 38.186667 85.333333 85.333333 85.333333h640c47.146667 0 85.333333-38.186667 85.333333-85.333333V384H106.666667z m278.613333 338.986667c12.586667 12.586667 12.586667 32.853333 0 45.226666-12.586667 12.586667-32.853333 12.586667-45.226667 0l-105.6-105.6a31.786667 31.786667 0 0 1 0-45.226666l105.6-105.6a31.786667 31.786667 0 0 1 45.226667 0c12.586667 12.586667 12.586667 32.853333 0 45.226666L302.293333 640l82.986667 82.986667z m186.88-212.053334l-57.6 271.36c-3.626667 17.28-20.693333 28.373333-37.973333 24.746667-17.28-3.626667-28.373333-20.693333-24.746667-37.973333l57.6-271.36c3.626667-17.28 20.693333-28.373333 37.973333-24.746667 17.28 3.84 28.373333 20.693333 24.746667 37.973333z m217.386667 151.68l-105.6 105.6c-12.586667 12.586667-32.853333 12.586667-45.226667 0a31.786667 31.786667 0 0 1 0-45.226666L721.706667 640l-82.986667-82.986667a31.786667 31.786667 0 0 1 0-45.226666 31.786667 31.786667 0 0 1 45.226667 0l105.6 105.6c12.586667 12.586667 12.586667 32.64 0 45.226666z" fill="var(--icon-color-main)" p-id="11269"></path></svg>