<svg t="1712839570606" class="icon" viewBox="0 0 1024 1024" version="1.1" xmlns="http://www.w3.org/2000/svg" p-id="12286" width="200" height="200"><path d="M829.52 97.13h-635a97.32 97.32 0 0 0-97.34 97.33v635.08a97.34 97.34 0 0 0 97.34 97.33h635a97.34 97.34 0 0 0 97.34-97.33V194.46a97.33 97.33 0 0 0-97.34-97.33zM575 676.41L433.4 818A160.87 160.87 0 1 1 206 590.57L347.55 449a28.55 28.55 0 1 1 40.56 40.2L246.17 630.8a103.76 103.76 0 1 0 146.67 146.69l141.63-141.63a28.44 28.44 0 1 1 40.21 40.23zM450.64 534.46l80.81-80.78a28.39 28.39 0 0 1 38.85 40.23l-80.77 80.78a28.44 28.44 0 1 1-40.21-40.23zM818 433.08L676.41 574.69a28.57 28.57 0 0 1-40.57-40.23l141.64-141.61a103.72 103.72 0 0 0-146.67-146.69L489.18 387.79A28.44 28.44 0 0 1 449 347.57l141.6-141.63A160.87 160.87 0 0 1 818 433.41z m0 0" p-id="12287" fill="var(--icon-color-main)"></path></svg>